font.ufo
<glyph name="percent" format="2">
  <advance width="808"/>
  <unicode hex="0025"/>
  <outline>
    <contour>
      <point x="242" y="0" type="line"/>
      <point x="271" y="0" type="line"/>
      <point x="566" y="730" type="line"/>
      <point x="537" y="730" type="line"/>
    </contour>
    <contour>
      <point x="200" y="350" type="curve" smooth="yes"/>
      <point x="298" y="350"/>
      <point x="348" y="430"/>
      <point x="348" y="537" type="curve" smooth="yes"/>
      <point x="348" y="549" type="line" smooth="yes"/>
      <point x="348" y="656"/>
      <point x="298" y="736"/>
      <point x="200" y="736" type="curve" smooth="yes"/>
      <point x="102" y="736"/>
      <point x="52" y="656"/>
      <point x="52" y="549" type="curve" smooth="yes"/>
      <point x="52" y="537" type="line" smooth="yes"/>
      <point x="52" y="430"/>
      <point x="102" y="350"/>
    </contour>
    <contour>
      <point x="200" y="376" type="curve" smooth="yes"/>
      <point x="120" y="376"/>
      <point x="80" y="439"/>
      <point x="80" y="543" type="curve" smooth="yes"/>
      <point x="80" y="647"/>
      <point x="120" y="710"/>
      <point x="200" y="710" type="curve" smooth="yes"/>
      <point x="280" y="710"/>
      <point x="320" y="647"/>
      <point x="320" y="543" type="curve" smooth="yes"/>
      <point x="320" y="437"/>
      <point x="280" y="376"/>
    </contour>
    <contour>
      <point x="608" y="-6" type="curve" smooth="yes"/>
      <point x="706" y="-6"/>
      <point x="756" y="74"/>
      <point x="756" y="181" type="curve" smooth="yes"/>
      <point x="756" y="193" type="line" smooth="yes"/>
      <point x="756" y="300"/>
      <point x="706" y="380"/>
      <point x="608" y="380" type="curve" smooth="yes"/>
      <point x="510" y="380"/>
      <point x="460" y="300"/>
      <point x="460" y="193" type="curve" smooth="yes"/>
      <point x="460" y="181" type="line" smooth="yes"/>
      <point x="460" y="74"/>
      <point x="510" y="-6"/>
    </contour>
    <contour>
      <point x="608" y="20" type="curve" smooth="yes"/>
      <point x="528" y="20"/>
      <point x="488" y="83"/>
      <point x="488" y="187" type="curve" smooth="yes"/>
      <point x="488" y="291"/>
      <point x="528" y="354"/>
      <point x="608" y="354" type="curve" smooth="yes"/>
      <point x="688" y="354"/>
      <point x="728" y="291"/>
      <point x="728" y="187" type="curve" smooth="yes"/>
      <point x="728" y="81"/>
      <point x="688" y="20"/>
    </contour>
  </outline>
</glyph>
<glyph name="ampersand" format="2">
  <advance width="648"/>
  <unicode hex="0026"/>
  <outline>
    <contour>
      <point x="548" y="0" type="line"/>
      <point x="588" y="0" type="line"/>
      <point x="246" y="361" type="line" smooth="yes"/>
      <point x="175" y="435"/>
      <point x="144" y="483"/>
      <point x="144" y="557" type="curve" smooth="yes"/>
      <point x="144" y="651"/>
      <point x="199" y="704"/>
      <point x="319" y="704" type="curve" smooth="yes"/>
      <point x="371" y="704"/>
      <point x="425" y="701"/>
      <point x="481" y="694" type="curve"/>
      <point x="481" y="724" type="line"/>
      <point x="426" y="731"/>
      <point x="374" y="734"/>
      <point x="324" y="734" type="curve" smooth="yes"/>
      <point x="176" y="734"/>
      <point x="112" y="666"/>
      <point x="112" y="557" type="curve" smooth="yes"/>
      <point x="112" y="476"/>
      <point x="147" y="424"/>
      <point x="225" y="341" type="curve" smooth="yes"/>
    </contour>
    <contour>
      <point x="273" y="-16" type="curve" smooth="yes"/>
      <point x="463" y="-16"/>
      <point x="548" y="155"/>
      <point x="548" y="412" type="curve"/>
      <point x="518" y="412" type="line"/>
      <point x="518" y="167"/>
      <point x="443" y="14"/>
      <point x="273" y="14" type="curve" smooth="yes"/>
      <point x="174" y="14"/>
      <point x="76" y="76"/>
      <point x="76" y="192" type="curve" smooth="yes"/>
      <point x="76" y="275"/>
      <point x="123" y="345"/>
      <point x="199" y="384" type="curve"/>
      <point x="184" y="410" type="line"/>
      <point x="105" y="368"/>
      <point x="44" y="291"/>
      <point x="44" y="196" type="curve" smooth="yes"/>
      <point x="44" y="188" type="line" smooth="yes"/>
      <point x="44" y="64"/>
      <point x="152" y="-16"/>
    </contour>
    <contour>
      <point x="378" y="406" type="line"/>
      <point x="614" y="406" type="line"/>
      <point x="614" y="434" type="line"/>
      <point x="378" y="434" type="line"/>
    </contour>
  </outline>
</glyph>
<glyph name="quotesingle" format="2">
  <advance width="258"/>
  <unicode hex="0027"/>
  <outline>
    <contour>
      <point x="114" y="484" type="line"/>
      <point x="144" y="484" type="line"/>
      <point x="144" y="730" type="line"/>
      <point x="114" y="730" type="line"/>
    </contour>
  </outline>
</glyph>
<glyph name="parenleft" format="2">
  <advance width="356"/>
  <unicode hex="0028"/>
  <outline>
    <contour>
      <point x="290" y="-182" type="curve"/>
      <point x="326" y="-182" type="line"/>
      <point x="205" y="-41"/>
      <point x="134" y="96"/>
      <point x="134" y="300" type="curve" smooth="yes"/>
      <point x="134" y="502"/>
      <point x="205" y="637"/>
      <point x="326" y="776" type="curve"/>
      <point x="290" y="776" type="line"/>
      <point x="180" y="655"/>
      <point x="102" y="509"/>
      <point x="102" y="300" type="curve" smooth="yes"/>
      <point x="102" y="89"/>
      <point x="180" y="-59"/>
    </contour>
  </outline>
</glyph>
<glyph name="hyphen" format="2">
  <advance width="496"/>
  <unicode hex="002D"/>
  <outline>
    <contour>
      <point x="94" y="264" type="line"/>
      <point x="402" y="264" type="line"/>
      <point x="402" y="292" type="line"/>
      <point x="94" y="292" type="line"/>
    </contour>
  </outline>
</glyph>
<glyph name="zero" format="2">
  <advance width="718"/>
  <unicode hex="0030"/>
  <outline>
    <contour>
      <point x="359" y="-16" type="curve" smooth="yes"/>
      <point x="536" y="-16"/>
      <point x="628" y="121"/>
      <point x="628" y="347" type="curve" smooth="yes"/>
      <point x="628" y="381" type="line" smooth="yes"/>
      <point x="628" y="616"/>
      <point x="532" y="748"/>
      <point x="359" y="748" type="curve" smooth="yes"/>
      <point x="186" y="748"/>
      <point x="90" y="616"/>
      <point x="90" y="381" type="curve" smooth="yes"/>
      <point x="90" y="347" type="line" smooth="yes"/>
      <point x="90" y="121"/>
      <point x="182" y="-16"/>
    </contour>
    <contour>
      <point x="359" y="14" type="curve" smooth="yes"/>
      <point x="202" y="14"/>
      <point x="122" y="129"/>
      <point x="122" y="365" type="curve" smooth="yes"/>
      <point x="122" y="607"/>
      <point x="206" y="718"/>
      <point x="359" y="718" type="curve" smooth="yes"/>
      <point x="512" y="718"/>
      <point x="596" y="607"/>
      <point x="596" y="365" type="curve" smooth="yes"/>
      <point x="596" y="129"/>
      <point x="516" y="14"/>
    </contour>
  </outline>
</glyph>
<glyph name="one" format="2">
  <advance width="408"/>
  <unicode hex="0031"/>
  <outline>
    <contour>
      <point x="228" y="0" type="line"/>
      <point x="260" y="0" type="line"/>
      <point x="260" y="730" type="line"/>
      <point x="54" y="730" type="line"/>
      <point x="54" y="700" type="line"/>
      <point x="238" y="700" type="line"/>
      <point x="228" y="710" type="line"/>
    </contour>
  </outline>
</glyph>
<glyph name="five" format="2">
  <advance width="604"/>
  <unicode hex="0035"/>
  <outline>
    <contour>
      <point x="307" y="-16" type="curve" smooth="yes"/>
      <point x="467" y="-16"/>
      <point x="546" y="92"/>
      <point x="546" y="210" type="curve" smooth="yes"/>
      <point x="546" y="222" type="line" smooth="yes"/>
      <point x="546" y="340"/>
      <point x="467" y="448"/>
      <point x="307" y="448" type="curve" smooth="yes"/>
      <point x="233" y="448"/>
      <point x="178" y="421"/>
      <point x="131" y="375" type="curve"/>
      <point x="148" y="377" type="line"/>
      <point x="182" y="711" type="line"/>
      <point x="167" y="700" type="line"/>
      <point x="479" y="700" type="line"/>
      <point x="479" y="730" type="line"/>
      <point x="155" y="730" type="line"/>
      <point x="117" y="355" type="line"/>
      <point x="147" y="355" type="line"/>
      <point x="190" y="396"/>
      <point x="245" y="418"/>
      <point x="307" y="418" type="curve" smooth="yes"/>
      <point x="447" y="418"/>
      <point x="514" y="328"/>
      <point x="514" y="216" type="curve" smooth="yes"/>
      <point x="514" y="104"/>
      <point x="447" y="14"/>
      <point x="307" y="14" type="curve" smooth="yes"/>
      <point x="167" y="14"/>
      <point x="100" y="104"/>
      <point x="100" y="216" type="curve"/>
      <point x="68" y="216" type="line"/>
      <point x="68" y="92"/>
      <point x="147" y="-16"/>
    </contour>
  </outline>
</glyph>
<glyph name="seven" format="2">
  <advance width="548"/>
  <unicode hex="0037"/>
  <outline>
    <contour>
      <point x="166" y="0" type="line"/>
      <point x="199" y="0" type="line"/>
      <point x="502" y="683" type="line"/>
      <point x="502" y="730" type="line"/>
      <point x="64" y="730" type="line"/>
      <point x="64" y="700" type="line"/>
      <point x="465" y="700" type="line"/>
      <point x="472" y="688" type="line"/>
    </contour>
    <contour>
      <point x="64" y="564" type="line"/>
      <point x="94" y="564" type="line"/>
      <point x="94" y="730" type="line"/>
      <point x="64" y="730" type="line"/>
    </contour>
  </outline>
</glyph>
<glyph name="greater" format="2">
  <advance width="580"/>
  <unicode hex="003E"/>
  <outline>
    <contour>
      <point x="84" y="148" type="line"/>
      <point x="496" y="300" type="line"/>
      <point x="496" y="330" type="line"/>
      <point x="84" y="179" type="line"/>
    </contour>
    <contour>
      <point x="496" y="331" type="line"/>
      <point x="496" y="360" type="line"/>
      <point x="84" y="512" type="line"/>
      <point x="84" y="482" type="line"/>
    </contour>
    <contour>
      <point x="474" y="316" type="line"/>
      <point x="496" y="316" type="line"/>
      <point x="496" y="344" type="line"/>
      <point x="474" y="344" type="line"/>
    </contour>
  </outline>
</glyph>
<glyph name="J" format="2">
  <advance width="634"/>
  <unicode hex="004A"/>
  <anchor x="281" y="0" name="bottom"/>
  <anchor x="333" y="730" name="top"/>
  <outline>
    <contour>
      <point x="281" y="-16" type="curve" smooth="yes"/>
      <point x="430" y="-16"/>
      <point x="516" y="77"/>
      <point x="516" y="221" type="curve" smooth="yes"/>
      <point x="516" y="718" type="line"/>
      <point x="484" y="718" type="line"/>
      <point x="484" y="217" type="line" smooth="yes"/>
      <point x="484" y="91"/>
      <point x="412" y="14"/>
      <point x="281" y="14" type="curve" smooth="yes"/>
      <point x="150" y="14"/>
      <point x="78" y="91"/>
      <point x="78" y="217" type="curve" smooth="yes"/>
      <point x="78" y="249" type="line"/>
      <point x="46" y="249" type="line"/>
      <point x="46" y="221" type="line" smooth="yes"/>
      <point x="46" y="77"/>
      <point x="132" y="-16"/>
    </contour>
    <contour>
      <point x="145" y="700" type="line"/>
      <point x="516" y="700" type="line"/>
      <point x="516" y="730" type="line"/>
      <point x="145" y="730" type="line"/>
    </contour>
  </outline>
</glyph>
<glyph name="O" format="2">
  <advance width="872"/>
  <unicode hex="004F"/>
  <anchor x="437" y="0" name="bottom"/>
  <anchor x="437" y="365" name="center"/>
  <anchor x="567" y="10" name="ogonek"/>
  <anchor x="437" y="730" name="top"/>
  <outline>
    <contour>
      <point x="437" y="-16" type="curve" smooth="yes"/>
      <point x="674" y="-16"/>
      <point x="802" y="177"/>
      <point x="802" y="360" type="curve" smooth="yes"/>
      <point x="802" y="373" type="line" smooth="yes"/>
      <point x="802" y="561"/>
      <point x="666" y="748"/>
      <point x="437" y="748" type="curve" smooth="yes"/>
      <point x="208" y="748"/>
      <point x="70" y="561"/>
      <point x="70" y="373" type="curve" smooth="yes"/>
      <point x="70" y="361" type="line" smooth="yes"/>
      <point x="70" y="177"/>
      <point x="200" y="-16"/>
    </contour>
    <contour>
      <point x="437" y="14" type="curve" smooth="yes"/>
      <point x="221" y="14"/>
      <point x="102" y="189"/>
      <point x="102" y="366" type="curve" smooth="yes"/>
      <point x="102" y="549"/>
      <point x="228" y="718"/>
      <point x="437" y="718" type="curve" smooth="yes"/>
      <point x="646" y="718"/>
      <point x="770" y="549"/>
      <point x="770" y="366" type="curve" smooth="yes"/>
      <point x="770" y="189"/>
      <point x="652" y="14"/>
    </contour>
  </outline>
</glyph>
<glyph name="P" format="2">
  <advance width="610"/>
  <unicode hex="0050"/>
  <outline>
    <contour>
      <point x="143" y="292" type="line"/>
      <point x="324" y="292" type="line" smooth="yes"/>
      <point x="490" y="292"/>
      <point x="556" y="394"/>
      <point x="556" y="507" type="curve" smooth="yes"/>
      <point x="556" y="517" type="line" smooth="yes"/>
      <point x="556" y="630"/>
      <point x="490" y="732"/>
      <point x="324" y="732" type="curve" smooth="yes"/>
      <point x="143" y="732" type="line"/>
      <point x="143" y="702" type="line"/>
      <point x="326" y="702" type="line" smooth="yes"/>
      <point x="471" y="702"/>
      <point x="524" y="616"/>
      <point x="524" y="512" type="curve" smooth="yes"/>
      <point x="524" y="408"/>
      <point x="471" y="322"/>
      <point x="326" y="322" type="curve" smooth="yes"/>
      <point x="143" y="322" type="line"/>
    </contour>
    <contour>
      <point x="130" y="0" type="line"/>
      <point x="162" y="0" type="line"/>
      <point x="162" y="732" type="line"/>
      <point x="130" y="732" type="line"/>
    </contour>
  </outline>
</glyph>
<glyph name="S" format="2">
  <advance width="712"/>
  <unicode hex="0053"/>
  <anchor x="357" y="0" name="bottom"/>
  <anchor x="355" y="730" name="top"/>
  <outline>
    <contour>
      <point x="357" y="-16" type="curve" smooth="yes"/>
      <point x="532" y="-16"/>
      <point x="624" y="71"/>
      <point x="624" y="188" type="curve" smooth="yes"/>
      <point x="624" y="291"/>
      <point x="550" y="376"/>
      <point x="406" y="389" type="curve" smooth="yes"/>
      <point x="316" y="397" type="line" smooth="yes"/>
      <point x="213" y="406"/>
      <point x="154" y="459"/>
      <point x="154" y="551" type="curve" smooth="yes"/>
      <point x="154" y="643"/>
      <point x="212" y="718"/>
      <point x="354" y="718" type="curve" smooth="yes"/>
      <point x="502" y="718"/>
      <point x="564" y="632"/>
      <point x="564" y="532" type="curve"/>
      <point x="596" y="532" type="line"/>
      <point x="596" y="647"/>
      <point x="520" y="748"/>
      <point x="354" y="748" type="curve" smooth="yes"/>
      <point x="194" y="748"/>
      <point x="122" y="658"/>
      <point x="122" y="551" type="curve" smooth="yes"/>
      <point x="122" y="445"/>
      <point x="194" y="377"/>
      <point x="311" y="367" type="curve" smooth="yes"/>
      <point x="401" y="359" type="line" smooth="yes"/>
      <point x="531" y="347"/>
      <point x="592" y="277"/>
      <point x="592" y="188" type="curve" smooth="yes"/>
      <point x="592" y="82"/>
      <point x="509" y="14"/>
      <point x="357" y="14" type="curve" smooth="yes"/>
      <point x="192" y="14"/>
      <point x="114" y="90"/>
      <point x="114" y="208" type="curve"/>
      <point x="82" y="208" type="line"/>
      <point x="82" y="79"/>
      <point x="169" y="-16"/>
    </contour>
  </outline>
</glyph>
<glyph name="T" format="2">
  <advance width="576"/>
  <unicode hex="0054"/>
  <anchor x="288" y="0" name="bottom"/>
  <anchor x="288" y="365" name="center"/>
  <anchor x="288" y="730" name="top"/>
  <outline>
    <contour>
      <point x="272" y="0" type="line"/>
      <point x="304" y="0" type="line"/>
      <point x="304" y="716" type="line"/>
      <point x="272" y="716" type="line"/>
    </contour>
    <contour>
      <point x="32" y="700" type="line"/>
      <point x="544" y="700" type="line"/>
      <point x="544" y="730" type="line"/>
      <point x="32" y="730" type="line"/>
    </contour>
  </outline>
</glyph>
<glyph name="W" format="2">
  <advance width="1011"/>
  <unicode hex="0057"/>
  <anchor x="513" y="0" name="bottom"/>
  <anchor x="505" y="730" name="top"/>
  <outline>
    <contour>
      <point x="251" y="0" type="line"/>
      <point x="336" y="0" type="line"/>
      <point x="511" y="695" type="line"/>
      <point x="480" y="695" type="line"/>
      <point x="310" y="19" type="line"/>
      <point x="319" y="30" type="line"/>
      <point x="266" y="30" type="line"/>
      <point x="277" y="19" type="line"/>
      <point x="72" y="730" type="line"/>
      <point x="40" y="730" type="line"/>
    </contour>
    <contour>
      <point x="690" y="0" type="line"/>
      <point x="775" y="0" type="line"/>
      <point x="971" y="730" type="line"/>
      <point x="939" y="730" type="line"/>
      <point x="749" y="19" type="line"/>
      <point x="761" y="30" type="line"/>
      <point x="704" y="30" type="line"/>
      <point x="716" y="19" type="line"/>
      <point x="531" y="695" type="line"/>
      <point x="500" y="695" type="line"/>
    </contour>
  </outline>
</glyph>
<glyph name="bracketleft" format="2">
  <advance width="356"/>
  <unicode hex="005B"/>
  <outline>
    <contour>
      <point x="136" y="-182" type="line"/>
      <point x="168" y="-182" type="line"/>
      <point x="168" y="776" type="line"/>
      <point x="136" y="776" type="line"/>
    </contour>
    <contour>
      <point x="136" y="-182" type="line"/>
      <point x="286" y="-182" type="line"/>
      <point x="286" y="-154" type="line"/>
      <point x="136" y="-154" type="line"/>
    </contour>
    <contour>
      <point x="136" y="748" type="line"/>
      <point x="286" y="748" type="line"/>
      <point x="286" y="776" type="line"/>
      <point x="136" y="776" type="line"/>
    </contour>
  </outline>
</glyph>
<glyph name="b" format="2">
  <advance width="674"/>
  <unicode hex="0062"/>
  <outline>
    <contour>
      <point x="361" y="-16" type="curve" smooth="yes"/>
      <point x="526" y="-16"/>
      <point x="612" y="127"/>
      <point x="612" y="257" type="curve" smooth="yes"/>
      <point x="612" y="263" type="line" smooth="yes"/>
      <point x="612" y="401"/>
      <point x="522" y="536"/>
      <point x="361" y="536" type="curve" smooth="yes"/>
      <point x="211" y="536"/>
      <point x="120" y="424"/>
      <point x="120" y="289" type="curve"/>
      <point x="140" y="346" type="line"/>
      <point x="140" y="730" type="line"/>
      <point x="108" y="730" type="line"/>
      <point x="108" y="0" type="line"/>
      <point x="134" y="0" type="line"/>
      <point x="134" y="231" type="line"/>
      <point x="118" y="231" type="line"/>
      <point x="118" y="104"/>
      <point x="208" y="-16"/>
    </contour>
    <contour>
      <point x="359" y="14" type="curve" smooth="yes"/>
      <point x="223" y="14"/>
      <point x="138" y="117"/>
      <point x="138" y="233" type="curve" smooth="yes"/>
      <point x="138" y="287" type="line" smooth="yes"/>
      <point x="138" y="411"/>
      <point x="227" y="506"/>
      <point x="359" y="506" type="curve" smooth="yes"/>
      <point x="499" y="506"/>
      <point x="580" y="392"/>
      <point x="580" y="260" type="curve" smooth="yes"/>
      <point x="580" y="136"/>
      <point x="503" y="14"/>
    </contour>
  </outline>
</glyph>
<glyph name="g" format="2">
  <advance width="664"/>
  <unicode hex="0067"/>
  <anchor x="310" y="-300" name="bottom"/>
  <anchor x="337" y="520" name="top"/>
  <outline>
    <contour>
      <point x="308" y="-204" type="curve" smooth="yes"/>
      <point x="494" y="-204"/>
      <point x="562" y="-140"/>
      <point x="562" y="47" type="curve" smooth="yes"/>
      <point x="562" y="520" type="line"/>
      <point x="536" y="520" type="line"/>
      <point x="536" y="330" type="line"/>
      <point x="552" y="289" type="line"/>
      <point x="552" y="415"/>
      <point x="463" y="536"/>
      <point x="311" y="536" type="curve" smooth="yes"/>
      <point x="147" y="536"/>
      <point x="62" y="392"/>
      <point x="62" y="263" type="curve" smooth="yes"/>
      <point x="62" y="257" type="line" smooth="yes"/>
      <point x="62" y="120"/>
      <point x="151" y="-16"/>
      <point x="311" y="-16" type="curve" smooth="yes"/>
      <point x="460" y="-16"/>
      <point x="550" y="97"/>
      <point x="550" y="231" type="curve"/>
      <point x="530" y="160" type="line"/>
      <point x="530" y="48" type="line" smooth="yes"/>
      <point x="530" y="-118"/>
      <point x="477" y="-174"/>
      <point x="312" y="-174" type="curve" smooth="yes"/>
      <point x="265" y="-174"/>
      <point x="210" y="-169"/>
      <point x="162" y="-161" type="curve"/>
      <point x="162" y="-191" type="line"/>
      <point x="208" y="-199"/>
      <point x="261" y="-204"/>
    </contour>
    <contour>
      <point x="313" y="14" type="curve" smooth="yes"/>
      <point x="174" y="14"/>
      <point x="94" y="129"/>
      <point x="94" y="260" type="curve" smooth="yes"/>
      <point x="94" y="383"/>
      <point x="170" y="506"/>
      <point x="313" y="506" type="curve" smooth="yes"/>
      <point x="448" y="506"/>
      <point x="532" y="402"/>
      <point x="532" y="287" type="curve" smooth="yes"/>
      <point x="532" y="233" type="line" smooth="yes"/>
      <point x="532" y="110"/>
      <point x="444" y="14"/>
    </contour>
  </outline>
</glyph>
<glyph name="i" format="2">
  <advance width="280"/>
  <unicode hex="0069"/>
  <anchor x="154" y="0" name="bottom"/>
  <outline>
    <contour>
      <point x="138" y="0" type="line"/>
      <point x="170" y="0" type="line"/>
      <point x="170" y="520" type="line"/>
      <point x="138" y="520" type="line"/>
    </contour>
    <contour>
      <point x="48" y="490" type="line"/>
      <point x="170" y="490" type="line"/>
      <point x="170" y="520" type="line"/>
      <point x="48" y="520" type="line"/>
    </contour>
    <contour>
      <point x="132" y="642" type="curve" smooth="yes"/>
      <point x="154" y="642"/>
      <point x="166" y="655"/>
      <point x="166" y="675" type="curve" smooth="yes"/>
      <point x="166" y="694"/>
      <point x="154" y="708"/>
      <point x="132" y="708" type="curve" smooth="yes"/>
      <point x="110" y="708"/>
      <point x="98" y="694"/>
      <point x="98" y="675" type="curve" smooth="yes"/>
      <point x="98" y="655"/>
      <point x="110" y="642"/>
    </contour>
  </outline>
</glyph>
<glyph name="r" format="2">
  <advance width="390"/>
  <unicode hex="0072"/>
  <note>
r / design an alternative version with a round hook. Look at lettera (based on Olivetti Candia)
</note>
  <anchor x="124" y="0" name="bottom"/>
  <anchor x="216" y="520" name="top"/>
  <outline>
    <contour>
      <point x="108" y="0" type="line"/>
      <point x="140" y="0" type="line"/>
      <point x="140" y="297" type="line" smooth="yes"/>
      <point x="140" y="427"/>
      <point x="205" y="494"/>
      <point x="337" y="494" type="curve" smooth="yes"/>
      <point x="362" y="494" type="line"/>
      <point x="362" y="524" type="line"/>
      <point x="345" y="524" type="line" smooth="yes"/>
      <point x="185" y="524"/>
      <point x="124" y="447"/>
      <point x="124" y="297" type="curve"/>
      <point x="134" y="297" type="line"/>
      <point x="134" y="520" type="line"/>
      <point x="108" y="520" type="line"/>
    </contour>
  </outline>
</glyph>
<glyph name="sterling" format="2">
  <advance width="608"/>
  <unicode hex="00A3"/>
  <outline>
    <contour>
      <point x="140" y="0" type="line"/>
      <point x="172" y="0" type="line"/>
      <point x="172" y="493" type="line" smooth="yes"/>
      <point x="172" y="660"/>
      <point x="250" y="706"/>
      <point x="363" y="706" type="curve" smooth="yes"/>
      <point x="412" y="706"/>
      <point x="474" y="699"/>
      <point x="518" y="691" type="curve"/>
      <point x="518" y="721" type="line"/>
      <point x="475" y="729"/>
      <point x="414" y="736"/>
      <point x="367" y="736" type="curve" smooth="yes"/>
      <point x="219" y="736"/>
      <point x="140" y="662"/>
      <point x="140" y="493" type="curve" smooth="yes"/>
    </contour>
    <contour>
      <point x="48" y="0" type="line"/>
      <point x="566" y="0" type="line"/>
      <point x="566" y="28" type="line"/>
      <point x="48" y="28" type="line"/>
    </contour>
    <contour>
      <point x="54" y="332" type="line"/>
      <point x="432" y="332" type="line"/>
      <point x="432" y="360" type="line"/>
      <point x="54" y="360" type="line"/>
    </contour>
    <contour>
      <point x="534" y="0" type="line"/>
      <point x="566" y="0" type="line"/>
      <point x="566" y="150" type="line"/>
      <point x="534" y="150" type="line"/>
    </contour>
  </outline>
</glyph>
<glyph name="currency" format="2">
  <advance width="640"/>
  <unicode hex="00A4"/>
  <outline>
    <contour>
      <point x="320" y="159" type="curve" smooth="yes"/>
      <point x="444" y="159"/>
      <point x="528" y="256"/>
      <point x="528" y="366" type="curve" smooth="yes"/>
      <point x="528" y="376" type="line" smooth="yes"/>
      <point x="528" y="489"/>
      <point x="444" y="583"/>
      <point x="320" y="583" type="curve" smooth="yes"/>
      <point x="196" y="583"/>
      <point x="112" y="489"/>
      <point x="112" y="376" type="curve" smooth="yes"/>
      <point x="112" y="366" type="line" smooth="yes"/>
      <point x="112" y="256"/>
      <point x="196" y="159"/>
    </contour>
    <contour>
      <point x="91" y="125" type="line"/>
      <point x="188" y="219" type="line"/>
      <point x="169" y="238" type="line"/>
      <point x="72" y="144" type="line"/>
    </contour>
    <contour>
      <point x="169" y="504" type="line"/>
      <point x="188" y="523" type="line"/>
      <point x="91" y="617" type="line"/>
      <point x="72" y="598" type="line"/>
    </contour>
    <contour>
      <point x="320" y="187" type="curve" smooth="yes"/>
      <point x="213" y="187"/>
      <point x="142" y="270"/>
      <point x="142" y="371" type="curve" smooth="yes"/>
      <point x="142" y="475"/>
      <point x="213" y="555"/>
      <point x="320" y="555" type="curve" smooth="yes"/>
      <point x="427" y="555"/>
      <point x="498" y="475"/>
      <point x="498" y="371" type="curve" smooth="yes"/>
      <point x="498" y="270"/>
      <point x="427" y="187"/>
    </contour>
    <contour>
      <point x="549" y="125" type="line"/>
      <point x="568" y="144" type="line"/>
      <point x="471" y="238" type="line"/>
      <point x="452" y="219" type="line"/>
    </contour>
    <contour>
      <point x="471" y="504" type="line"/>
      <point x="568" y="598" type="line"/>
      <point x="549" y="617" type="line"/>
      <point x="452" y="523" type="line"/>
    </contour>
  </outline>
</glyph>
<glyph name="lslash" format="2">
  <advance width="250"/>
  <unicode hex="0142"/>
  <anchor x="126" y="0" name="bottom"/>
  <anchor x="126" y="480" name="center"/>
  <anchor x="88" y="730" name="top"/>
  <anchor x="144" y="534" name="topright"/>
  <outline>
    <contour>
      <point x="38" y="263" type="line"/>
      <point x="116" y="310" type="line"/>
      <point x="116" y="341" type="line"/>
      <point x="38" y="294" type="line"/>
    </contour>
    <contour>
      <point x="136" y="322" type="line"/>
      <point x="211" y="367" type="line"/>
      <point x="211" y="398" type="line"/>
      <point x="136" y="353" type="line"/>
    </contour>
    <component base="l"/>
  </outline>
</glyph>
<glyph name="Eng" format="2">
  <advance width="822"/>
  <unicode hex="014A"/>
  <outline>
    <contour>
      <point x="413" y="-208" type="line"/>
      <point x="525" y="-208" type="line" smooth="yes"/>
      <point x="634" y="-208"/>
      <point x="692" y="-153"/>
      <point x="692" y="-18" type="curve" smooth="yes"/>
      <point x="692" y="730" type="line"/>
      <point x="660" y="730" type="line"/>
      <point x="660" y="18" type="line"/>
      <point x="680" y="30" type="line"/>
      <point x="648" y="30" type="line"/>
      <point x="191" y="730" type="line"/>
      <point x="130" y="730" type="line"/>
      <point x="130" y="0" type="line"/>
      <point x="162" y="0" type="line"/>
      <point x="162" y="712" type="line"/>
      <point x="142" y="700" type="line"/>
      <point x="174" y="700" type="line"/>
      <point x="631" y="0" type="line"/>
      <point x="672" y="0" type="line"/>
      <point x="660" y="7" type="line"/>
      <point x="660" y="-26" type="line" smooth="yes"/>
      <point x="660" y="-127"/>
      <point x="619" y="-178"/>
      <point x="525" y="-178" type="curve" smooth="yes"/>
      <point x="413" y="-178" type="line"/>
    </contour>
  </outline>
</glyph>
<glyph name="jdotless" format="2">
  <advance width="288"/>
  <unicode hex="0237"/>
  <anchor x="160" y="-300" name="bottom"/>
  <anchor x="123" y="520" name="top"/>
  <outline>
    <contour>
      <point x="-6" y="-202" type="line"/>
      <point x="51" y="-202" type="line" smooth="yes"/>
      <point x="142" y="-202"/>
      <point x="178" y="-160"/>
      <point x="178" y="-56" type="curve" smooth="yes"/>
      <point x="178" y="520" type="line"/>
      <point x="146" y="520" type="line"/>
      <point x="146" y="-70" type="line" smooth="yes"/>
      <point x="146" y="-138"/>
      <point x="118" y="-172"/>
      <point x="63" y="-172" type="curve" smooth="yes"/>
      <point x="-6" y="-172" type="line"/>
    </contour>
    <contour>
      <point x="54" y="490" type="line"/>
      <point x="178" y="490" type="line"/>
      <point x="178" y="520" type="line"/>
      <point x="54" y="520" type="line"/>
    </contour>
  </outline>
</glyph>
<glyph name="acutecomb" format="2">
  <unicode hex="0301"/>
  <anchor x="25" y="520" name="_top"/>
  <anchor x="101" y="796" name="top"/>
  <outline>
    <contour>
      <point x="0" y="612" type="line"/>
      <point x="32" y="612" type="line"/>
      <point x="118" y="796" type="line"/>
      <point x="84" y="796" type="line"/>
    </contour>
  </outline>
</glyph>
<glyph name="riel-khmer" format="2">
  <advance width="500"/>
  <unicode hex="17DB"/>
  <outline>
    <contour>
      <point x="258" y="-4" type="curve" smooth="yes"/>
      <point x="310" y="-4" type="line"/>
      <point x="310" y="387" type="line"/>
      <point x="278" y="387" type="line"/>
      <point x="278" y="14" type="line"/>
      <point x="299" y="26" type="line"/>
      <point x="256" y="26" type="line" smooth="yes"/>
      <point x="149" y="26"/>
      <point x="112" y="64"/>
      <point x="112" y="126" type="curve" smooth="yes"/>
      <point x="112" y="203"/>
      <point x="172" y="239"/>
      <point x="284" y="239" type="curve"/>
      <point x="284" y="269" type="line"/>
      <point x="156" y="269"/>
      <point x="80" y="221"/>
      <point x="80" y="126" type="curve" smooth="yes"/>
      <point x="80" y="44"/>
      <point x="141" y="-4"/>
    </contour>
    <contour>
      <point x="128" y="377" type="line"/>
      <point x="448" y="377" type="line"/>
      <point x="448" y="405" type="line"/>
      <point x="128" y="405" type="line"/>
    </contour>
    <contour>
      <point x="278" y="395" type="line"/>
      <point x="310" y="395" type="line"/>
      <point x="310" y="437" type="line" smooth="yes"/>
      <point x="310" y="479"/>
      <point x="298" y="500"/>
      <point x="261" y="526" type="curve" smooth="yes"/>
      <point x="228" y="549"/>
      <point x="192" y="571"/>
      <point x="174" y="585" type="curve" smooth="yes"/>
      <point x="152" y="602"/>
      <point x="142" y="625"/>
      <point x="158" y="662" type="curve" smooth="yes"/>
      <point x="173" y="696"/>
      <point x="197" y="704"/>
      <point x="245" y="704" type="curve" smooth="yes"/>
      <point x="291" y="704"/>
      <point x="329" y="700"/>
      <point x="376" y="692" type="curve"/>
      <point x="376" y="722" type="line"/>
      <point x="331" y="729"/>
      <point x="295" y="734"/>
      <point x="249" y="734" type="curve" smooth="yes"/>
      <point x="184" y="734"/>
      <point x="151" y="717"/>
      <point x="130" y="674" type="curve" smooth="yes"/>
      <point x="110" y="632"/>
      <point x="119" y="588"/>
      <point x="157" y="561" type="curve" smooth="yes"/>
      <point x="181" y="544"/>
      <point x="215" y="522"/>
      <point x="244" y="502" type="curve" smooth="yes"/>
      <point x="272" y="482"/>
      <point x="278" y="468"/>
      <point x="278" y="437" type="curve" smooth="yes"/>
    </contour>
  </outline>
</glyph>
<glyph name="trademark" format="2">
  <advance width="808"/>
  <unicode hex="2122"/>
  <outline>
    <contour>
      <point x="368" y="344" type="line"/>
      <point x="396" y="344" type="line"/>
      <point x="396" y="693" type="line"/>
      <point x="391" y="692" type="line"/>
      <point x="527" y="413" type="line"/>
      <point x="574" y="413" type="line"/>
      <point x="709" y="692" type="line"/>
      <point x="702" y="693" type="line"/>
      <point x="702" y="344" type="line"/>
      <point x="732" y="344" type="line"/>
      <point x="732" y="730" type="line"/>
      <point x="696" y="730" type="line"/>
      <point x="556" y="439" type="line"/>
      <point x="545" y="439" type="line"/>
      <point x="404" y="730" type="line"/>
      <point x="368" y="730" type="line"/>
    </contour>
    <contour>
      <point x="160" y="344" type="line"/>
      <point x="190" y="344" type="line"/>
      <point x="190" y="722" type="line"/>
      <point x="160" y="722" type="line"/>
    </contour>
    <contour>
      <point x="36" y="702" type="line"/>
      <point x="314" y="702" type="line"/>
      <point x="314" y="730" type="line"/>
      <point x="36" y="730" type="line"/>
    </contour>
  </outline>
</glyph>
<glyph name="minus" format="2">
  <advance width="584"/>
  <unicode hex="2212"/>
  <outline>
    <contour>
      <point x="86" y="331" type="line"/>
      <point x="498" y="331" type="line"/>
      <point x="498" y="359" type="line"/>
      <point x="86" y="359" type="line"/>
    </contour>
  </outline>
</glyph>
<glyph name="greaterequal" format="2">
  <advance width="580"/>
  <unicode hex="2265"/>
  <outline>
    <contour>
      <point x="82" y="56" type="line"/>
      <point x="498" y="56" type="line"/>
      <point x="498" y="84" type="line"/>
      <point x="82" y="84" type="line"/>
    </contour>
    <contour>
      <point x="84" y="178" type="line"/>
      <point x="496" y="322" type="line"/>
      <point x="496" y="352" type="line"/>
      <point x="84" y="209" type="line"/>
    </contour>
    <contour>
      <point x="496" y="353" type="line"/>
      <point x="496" y="382" type="line"/>
      <point x="84" y="526" type="line"/>
      <point x="84" y="496" type="line"/>
    </contour>
    <contour>
      <point x="474" y="338" type="line"/>
      <point x="496" y="338" type="line"/>
      <point x="496" y="366" type="line"/>
      <point x="474" y="366" type="line"/>
    </contour>
  </outline>
</glyph>
<glyph name="braceleft.case" format="2">
  <advance width="356"/>
  <outline>
    <contour>
      <point x="284" y="-118" type="curve" smooth="yes"/>
      <point x="298" y="-118" type="line"/>
      <point x="298" y="-90" type="line"/>
      <point x="284" y="-90" type="line" smooth="yes"/>
      <point x="206" y="-90"/>
      <point x="165" y="-51"/>
      <point x="165" y="50" type="curve" smooth="yes"/>
      <point x="165" y="232" type="line" smooth="yes"/>
      <point x="165" y="294"/>
      <point x="138" y="330"/>
      <point x="94" y="340" type="curve"/>
      <point x="94" y="348" type="line"/>
      <point x="138" y="358"/>
      <point x="165" y="394"/>
      <point x="165" y="456" type="curve" smooth="yes"/>
      <point x="165" y="638" type="line" smooth="yes"/>
      <point x="165" y="739"/>
      <point x="206" y="778"/>
      <point x="284" y="778" type="curve" smooth="yes"/>
      <point x="298" y="778" type="line"/>
      <point x="298" y="806" type="line"/>
      <point x="284" y="806" type="line" smooth="yes"/>
      <point x="192" y="806"/>
      <point x="133" y="757"/>
      <point x="133" y="634" type="curve" smooth="yes"/>
      <point x="133" y="444" type="line" smooth="yes"/>
      <point x="133" y="391"/>
      <point x="103" y="370"/>
      <point x="72" y="370" type="curve"/>
      <point x="72" y="318" type="line"/>
      <point x="103" y="318"/>
      <point x="133" y="297"/>
      <point x="133" y="244" type="curve" smooth="yes"/>
      <point x="133" y="54" type="line" smooth="yes"/>
      <point x="133" y="-69"/>
      <point x="192" y="-118"/>
    </contour>
  </outline>
</glyph>
<glyph name="brevecomb.case" format="2">
  <anchor x="141" y="730" name="_top"/>
  <anchor x="141" y="940" name="top"/>
  <outline>
    <contour>
      <point x="141" y="794" type="curve" smooth="yes"/>
      <point x="237" y="794"/>
      <point x="276" y="856"/>
      <point x="282" y="940" type="curve"/>
      <point x="254" y="940" type="line"/>
      <point x="248" y="869"/>
      <point x="218" y="820"/>
      <point x="141" y="820" type="curve" smooth="yes"/>
      <point x="64" y="820"/>
      <point x="34" y="869"/>
      <point x="28" y="940" type="curve"/>
      <point x="0" y="940" type="line"/>
      <point x="6" y="856"/>
      <point x="45" y="794"/>
    </contour>
  </outline>
</glyph>
<glyph name="cedillacomb.case" format="2">
  <anchor x="66" y="0" name="_bottom"/>
  <anchor x="71" y="-300" name="bottom"/>
  <outline>
    <contour>
      <point x="73" y="-232" type="curve" smooth="yes"/>
      <point x="139" y="-232"/>
      <point x="179" y="-202"/>
      <point x="179" y="-149" type="curve" smooth="yes"/>
      <point x="179" y="-103"/>
      <point x="140" y="-70"/>
      <point x="79" y="-70" type="curve" smooth="yes"/>
      <point x="68" y="-70" type="line"/>
      <point x="79" y="-89" type="line"/>
      <point x="79" y="10" type="line"/>
      <point x="53" y="10" type="line"/>
      <point x="53" y="-96" type="line"/>
      <point x="79" y="-96" type="line" smooth="yes"/>
      <point x="124" y="-96"/>
      <point x="149" y="-117"/>
      <point x="149" y="-149" type="curve" smooth="yes"/>
      <point x="149" y="-188"/>
      <point x="121" y="-204"/>
      <point x="73" y="-204" type="curve" smooth="yes"/>
      <point x="47" y="-204"/>
      <point x="20" y="-200"/>
      <point x="0" y="-194" type="curve"/>
      <point x="0" y="-222" type="line"/>
      <point x="18" y="-228"/>
      <point x="44" y="-232"/>
    </contour>
  </outline>
</glyph>
<glyph name="fi.salt" format="2">
  <advance width="618"/>
  <outline>
    <contour>
      <point x="130" y="0" type="line"/>
      <point x="162" y="0" type="line"/>
      <point x="162" y="636" type="line" smooth="yes"/>
      <point x="162" y="683"/>
      <point x="187" y="712"/>
      <point x="236" y="712" type="curve" smooth="yes"/>
      <point x="279" y="712"/>
      <point x="310" y="683"/>
      <point x="310" y="636" type="curve"/>
      <point x="340" y="636" type="line"/>
      <point x="340" y="692"/>
      <point x="301" y="742"/>
      <point x="236" y="742" type="curve" smooth="yes"/>
      <point x="165" y="742"/>
      <point x="130" y="692"/>
      <point x="130" y="632" type="curve" smooth="yes"/>
    </contour>
    <contour>
      <point x="44" y="492" type="line"/>
      <point x="328" y="492" type="line"/>
      <point x="328" y="520" type="line"/>
      <point x="44" y="520" type="line"/>
    </contour>
    <contour>
      <point x="476" y="0" type="line"/>
      <point x="508" y="0" type="line"/>
      <point x="508" y="520" type="line"/>
      <point x="476" y="520" type="line"/>
    </contour>
    <contour>
      <point x="392" y="490" type="line"/>
      <point x="508" y="490" type="line"/>
      <point x="508" y="520" type="line"/>
      <point x="392" y="520" type="line"/>
    </contour>
    <contour>
      <point x="470" y="642" type="curve" smooth="yes"/>
      <point x="492" y="642"/>
      <point x="504" y="655"/>
      <point x="504" y="675" type="curve" smooth="yes"/>
      <point x="504" y="694"/>
      <point x="492" y="708"/>
      <point x="470" y="708" type="curve" smooth="yes"/>
      <point x="448" y="708"/>
      <point x="436" y="694"/>
      <point x="436" y="675" type="curve" smooth="yes"/>
      <point x="436" y="655"/>
      <point x="448" y="642"/>
    </contour>
  </outline>
</glyph>
<glyph name="fl.salt" format="2">
  <advance width="622"/>
  <outline>
    <contour>
      <point x="130" y="0" type="line"/>
      <point x="162" y="0" type="line"/>
      <point x="162" y="636" type="line" smooth="yes"/>
      <point x="162" y="683"/>
      <point x="188" y="712"/>
      <point x="236" y="712" type="curve" smooth="yes"/>
      <point x="278" y="712"/>
      <point x="310" y="683"/>
      <point x="310" y="636" type="curve"/>
      <point x="340" y="636" type="line"/>
      <point x="340" y="692"/>
      <point x="300" y="742"/>
      <point x="236" y="742" type="curve" smooth="yes"/>
      <point x="166" y="742"/>
      <point x="130" y="692"/>
      <point x="130" y="632" type="curve" smooth="yes"/>
    </contour>
    <contour>
      <point x="44" y="490" type="line"/>
      <point x="332" y="490" type="line"/>
      <point x="332" y="518" type="line"/>
      <point x="44" y="518" type="line"/>
    </contour>
    <contour>
      <point x="519" y="-6" type="curve" smooth="yes"/>
      <point x="575" y="-6" type="line"/>
      <point x="575" y="24" type="line"/>
      <point x="515" y="24" type="line" smooth="yes"/>
      <point x="483" y="24"/>
      <point x="469" y="39"/>
      <point x="469" y="80" type="curve" smooth="yes"/>
      <point x="469" y="730" type="line"/>
      <point x="437" y="730" type="line"/>
      <point x="437" y="84" type="line" smooth="yes"/>
      <point x="437" y="19"/>
      <point x="471" y="-6"/>
    </contour>
  </outline>
</glyph>
<glyph name="l.salt" format="2">
  <advance width="281"/>
  <anchor x="163" y="0" name="bottom"/>
  <anchor x="128" y="480" name="center"/>
  <anchor x="112" y="730" name="top"/>
  <anchor x="130" y="532" name="topright"/>
  <outline>
    <contour>
      <point x="178" y="-6" type="curve" smooth="yes"/>
      <point x="234" y="-6" type="line"/>
      <point x="234" y="24" type="line"/>
      <point x="174" y="24" type="line" smooth="yes"/>
      <point x="142" y="24"/>
      <point x="128" y="39"/>
      <point x="128" y="80" type="curve" smooth="yes"/>
      <point x="128" y="730" type="line"/>
      <point x="96" y="730" type="line"/>
      <point x="96" y="84" type="line" smooth="yes"/>
      <point x="96" y="19"/>
      <point x="130" y="-6"/>
    </contour>
  </outline>
</glyph>
<glyph name="multiply.tnum" format="2">
  <advance width="626"/>
  <outline>
    <contour>
      <point x="123" y="140" type="line"/>
      <point x="104" y="159" type="line"/>
      <point x="503" y="552" type="line"/>
      <point x="522" y="533" type="line"/>
    </contour>
    <contour>
      <point x="503" y="139" type="line"/>
      <point x="104" y="534" type="line"/>
      <point x="123" y="553" type="line"/>
      <point x="522" y="158" type="line"/>
    </contour>
  </outline>
</glyph>
<glyph name="riel-khmer.tnum" format="2">
  <advance width="626"/>
  <outline>
    <contour>
      <point x="319" y="-4" type="curve" smooth="yes"/>
      <point x="372" y="-4" type="line"/>
      <point x="372" y="387" type="line"/>
      <point x="340" y="387" type="line"/>
      <point x="340" y="14" type="line"/>
      <point x="361" y="26" type="line"/>
      <point x="317" y="26" type="line" smooth="yes"/>
      <point x="211" y="26"/>
      <point x="160" y="56"/>
      <point x="160" y="126" type="curve" smooth="yes"/>
      <point x="160" y="203"/>
      <point x="222" y="239"/>
      <point x="346" y="239" type="curve"/>
      <point x="346" y="269" type="line"/>
      <point x="206" y="269"/>
      <point x="128" y="221"/>
      <point x="128" y="126" type="curve" smooth="yes"/>
      <point x="128" y="44"/>
      <point x="191" y="-4"/>
    </contour>
    <contour>
      <point x="177" y="377" type="line"/>
      <point x="518" y="377" type="line"/>
      <point x="518" y="405" type="line"/>
      <point x="177" y="405" type="line"/>
    </contour>
    <contour>
      <point x="340" y="395" type="line"/>
      <point x="372" y="395" type="line"/>
      <point x="372" y="437" type="line" smooth="yes"/>
      <point x="372" y="479"/>
      <point x="359" y="500"/>
      <point x="319" y="527" type="curve" smooth="yes"/>
      <point x="285" y="550"/>
      <point x="252" y="569"/>
      <point x="231" y="585" type="curve" smooth="yes"/>
      <point x="208" y="602"/>
      <point x="196" y="624"/>
      <point x="213" y="662" type="curve" smooth="yes"/>
      <point x="229" y="696"/>
      <point x="255" y="704"/>
      <point x="305" y="704" type="curve" smooth="yes"/>
      <point x="352" y="704"/>
      <point x="392" y="700"/>
      <point x="441" y="692" type="curve"/>
      <point x="441" y="722" type="line"/>
      <point x="394" y="729"/>
      <point x="357" y="734"/>
      <point x="310" y="734" type="curve" smooth="yes"/>
      <point x="246" y="734"/>
      <point x="209" y="719"/>
      <point x="187" y="674" type="curve" smooth="yes"/>
      <point x="166" y="632"/>
      <point x="175" y="588"/>
      <point x="216" y="560" type="curve" smooth="yes"/>
      <point x="234" y="547"/>
      <point x="270" y="526"/>
      <point x="303" y="503" type="curve" smooth="yes"/>
      <point x="334" y="482"/>
      <point x="340" y="468"/>
      <point x="340" y="437" type="curve" smooth="yes"/>
    </contour>
  </outline>
</glyph>
<glyph name="two.tnum" format="2">
  <advance width="626"/>
  <outline>
    <contour>
      <point x="113" y="0" type="line"/>
      <point x="567" y="0" type="line"/>
      <point x="567" y="30" type="line"/>
      <point x="132" y="30" type="line"/>
      <point x="145" y="14" type="line"/>
      <point x="145" y="98" type="line" smooth="yes"/>
      <point x="145" y="158"/>
      <point x="163" y="194"/>
      <point x="245" y="233" type="curve" smooth="yes"/>
      <point x="402" y="308" type="line" smooth="yes"/>
      <point x="485" y="348"/>
      <point x="547" y="413"/>
      <point x="547" y="515" type="curve" smooth="yes"/>
      <point x="547" y="527" type="line" smooth="yes"/>
      <point x="547" y="656"/>
      <point x="463" y="748"/>
      <point x="328" y="748" type="curve" smooth="yes"/>
      <point x="195" y="748"/>
      <point x="107" y="656"/>
      <point x="107" y="521" type="curve"/>
      <point x="139" y="521" type="line"/>
      <point x="139" y="644"/>
      <point x="215" y="718"/>
      <point x="328" y="718" type="curve" smooth="yes"/>
      <point x="443" y="718"/>
      <point x="517" y="644"/>
      <point x="517" y="521" type="curve" smooth="yes"/>
      <point x="517" y="425"/>
      <point x="466" y="369"/>
      <point x="393" y="334" type="curve" smooth="yes"/>
      <point x="237" y="260" type="line" smooth="yes"/>
      <point x="138" y="213"/>
      <point x="113" y="171"/>
      <point x="113" y="94" type="curve" smooth="yes"/>
    </contour>
  </outline>
</glyph>
<glyph name="yen.tnum" format="2">
  <advance width="626"/>
  <outline>
    <contour>
      <point x="287" y="319" type="line"/>
      <point x="349" y="319" type="line"/>
      <point x="566" y="730" type="line"/>
      <point x="533" y="730" type="line"/>
      <point x="325" y="333" type="line"/>
      <point x="347" y="340" type="line"/>
      <point x="291" y="340" type="line"/>
      <point x="312" y="333" type="line"/>
      <point x="94" y="730" type="line"/>
      <point x="60" y="730" type="line"/>
    </contour>
    <contour>
      <point x="302" y="0" type="line"/>
      <point x="332" y="0" type="line"/>
      <point x="332" y="326" type="line"/>
      <point x="302" y="326" type="line"/>
    </contour>
    <contour>
      <point x="90" y="174" type="line"/>
      <point x="544" y="174" type="line"/>
      <point x="544" y="202" type="line"/>
      <point x="90" y="202" type="line"/>
    </contour>
    <contour>
      <point x="90" y="312" type="line"/>
      <point x="544" y="312" type="line"/>
      <point x="544" y="340" type="line"/>
      <point x="90" y="340" type="line"/>
    </contour>
  </outline>
</glyph>
